<svg width="60" height="60" viewBox="0 0 60 60" fill="none" xmlns="http://www.w3.org/2000/svg">
<path d="M6.45 47.5242L6.4 47.5742C5.725 46.0992 5.3 44.4242 5.125 42.5742C5.3 44.3992 5.775 46.0492 6.45 47.5242Z" fill="#051655"/>
<path d="M22.5003 25.9508C25.7864 25.9508 28.4503 23.2869 28.4503 20.0008C28.4503 16.7147 25.7864 14.0508 22.5003 14.0508C19.2142 14.0508 16.5503 16.7147 16.5503 20.0008C16.5503 23.2869 19.2142 25.9508 22.5003 25.9508Z" fill="#051655"/>
<path d="M40.475 5H19.525C10.425 5 5 10.425 5 19.525V40.475C5 43.2 5.475 45.575 6.4 47.575C8.55 52.325 13.15 55 19.525 55H40.475C49.575 55 55 49.575 55 40.475V34.75V19.525C55 10.425 49.575 5 40.475 5ZM50.925 31.25C48.975 29.575 45.825 29.575 43.875 31.25L33.475 40.175C31.525 41.85 28.375 41.85 26.425 40.175L25.575 39.475C23.8 37.925 20.975 37.775 18.975 39.125L9.625 45.4C9.075 44 8.75 42.375 8.75 40.475V19.525C8.75 12.475 12.475 8.75 19.525 8.75H40.475C47.525 8.75 51.25 12.475 51.25 19.525V31.525L50.925 31.25Z" fill="#051655"/>
</svg>
