<svg width="120" height="31" viewBox="0 0 120 31" fill="none" xmlns="http://www.w3.org/2000/svg">
<g clip-path="url(#clip0_48_1170)">
<path d="M15.4931 28.2891C14.2149 29.4926 12.5767 30.2441 10.8296 30.4283C9.81132 30.5608 8.78154 30.5809 7.75889 30.4884C5.71935 30.4171 3.74711 29.7417 2.09306 28.5481C1.45133 28.1011 0.926391 27.5069 0.562188 26.8154C0.197985 26.1239 0.00519334 25.3553 0 24.574C0.0157822 18.8054 -0.0138875 13.0368 0.0186633 7.26821C0.0434583 5.6936 0.611693 4.17577 1.62744 2.97104C2.91449 1.47841 4.69949 0.501855 6.6521 0.222149C7.94677 -0.0145915 9.26856 -0.0673104 10.578 0.0655521C12.5768 0.159802 14.4943 0.883879 16.0554 2.13387C17.242 3.09322 18.0114 4.47336 18.2028 5.98585C18.2925 6.65855 18.2393 7.3214 18.2896 8.02068H12.4837C12.4559 7.54754 12.3676 7.07985 12.2212 6.62898C12.1417 6.35426 11.9994 6.10176 11.8055 5.89135C11.6115 5.68095 11.3713 5.51841 11.1037 5.41657C10.4941 5.13277 9.82802 4.99082 9.15551 5.0014C8.483 5.01197 7.8216 5.17482 7.22127 5.47765C6.82213 5.67904 6.48311 5.98171 6.23813 6.35528C5.99315 6.72886 5.8509 7.16019 5.82561 7.60602C5.61946 9.7285 5.75843 11.8579 5.73771 13.9833C5.71207 16.6219 5.72489 19.2614 5.73771 21.9C5.68331 22.6982 5.86479 23.4947 6.25956 24.1909C6.50894 24.5589 6.83887 24.8654 7.2244 25.0872C7.60993 25.309 8.04096 25.4404 8.48484 25.4713C9.20043 25.57 9.92925 25.5026 10.6145 25.2743C11.0834 25.1466 11.5024 24.8798 11.8162 24.5093C12.13 24.1388 12.3239 23.6819 12.3722 23.1991C12.6149 21.5247 12.3979 19.8396 12.4896 18.115H10.1035V13.2377H18.26V30.0511C17.7964 30.0511 17.3259 30.0718 16.8573 30.0442C16.5358 30.0255 16.4766 29.6768 16.3079 29.4808C16.0136 29.0995 15.7416 28.7016 15.4931 28.2891V28.2891Z" fill="#051655"/>
<path d="M44.0748 30.141C42.7027 30.141 41.3336 30.1794 39.9685 30.1233C39.6887 30.0867 39.4229 29.9791 39.1965 29.8108C38.9701 29.6426 38.7907 29.4192 38.6753 29.162C38.2271 28.2968 37.9435 27.356 37.8389 26.3875C37.7511 25.8409 37.7037 25.2894 37.6337 24.7132H31.0505C30.8789 25.7355 30.7369 26.7411 30.5346 27.7349C30.4232 28.5144 30.0545 29.2346 29.4871 29.7815C29.2706 29.9934 28.9848 30.12 28.6822 30.1381C27.469 30.1597 26.2557 30.1469 25 30.1469C25.3423 28.4017 25.7033 26.6997 26.0071 24.9801C26.3829 22.8586 26.7962 20.745 27.2065 18.6314C27.6376 16.4133 28.0075 14.1835 28.4228 11.9616C28.7424 10.2567 29.1064 8.56067 29.424 6.8558C29.7525 5.08986 30.0158 3.31013 30.3719 1.5501C30.4138 1.11758 30.6224 0.718237 30.9537 0.436489C31.285 0.154742 31.7131 0.0126404 32.1474 0.0402176C33.6852 0.0510516 35.2239 0.0727196 36.7607 0.0402176C37.2652 -0.0225576 37.7741 0.115576 38.1773 0.424707C38.5805 0.733839 38.8455 1.18909 38.915 1.69191C39.2365 3.04518 39.4289 4.42799 39.6785 5.798C39.8758 6.8883 40.0809 7.97761 40.2762 9.0679C40.511 10.3808 40.7359 11.6947 40.9667 13.0075C41.1857 14.2308 41.4155 15.4531 41.6374 16.6763C41.8774 18.0027 42.1152 19.3297 42.3506 20.6573C42.541 21.7191 42.7284 22.7818 42.9227 23.8425C43.1594 25.1387 43.404 26.4338 43.6408 27.73C43.7907 28.5189 43.9278 29.3157 44.0748 30.141ZM34.4624 5.85809C34.4151 5.91226 34.351 5.95166 34.3431 5.99992C34.2445 6.60564 34.1458 7.21332 34.0471 7.82003C33.8785 8.82463 33.7029 9.82728 33.5313 10.8309C33.334 11.9819 33.1367 13.1333 32.9394 14.285C32.7372 15.4669 32.5282 16.6487 32.3319 17.8306C32.2165 18.526 32.1089 19.2233 32.0221 19.9226C32.0074 19.9908 32.0086 20.0616 32.0255 20.1293C32.0425 20.197 32.0748 20.2599 32.12 20.3132C32.1652 20.3665 32.222 20.4087 32.2861 20.4366C32.3501 20.4645 32.4198 20.4773 32.4897 20.4741C33.8114 20.4925 35.1332 20.4925 36.455 20.4741C36.7992 20.4741 37.0172 20.2486 36.887 19.8999C36.8149 19.6559 36.766 19.4056 36.741 19.1524C36.3464 16.9097 35.9933 14.6592 35.6106 12.4146C35.2427 10.2321 34.8501 8.05739 34.4624 5.85809V5.85809Z" fill="#051655"/>
<path d="M61.8245 24.9707C62.1651 24.2789 62.3233 23.5117 62.2841 22.7418C62.2713 17.4647 62.2772 12.1875 62.2772 6.9104C62.2977 6.57019 62.2454 6.22955 62.1239 5.91106C62.0023 5.59258 61.8143 5.30356 61.5723 5.06321C61.3303 4.82287 61.0398 4.63668 60.7202 4.51705C60.4006 4.39742 60.0591 4.34708 59.7185 4.36935C59.22 4.33717 58.7196 4.39013 58.2389 4.52595C57.8555 4.66278 57.5149 4.89819 57.2517 5.20842C56.9885 5.51865 56.8118 5.89271 56.7396 6.29288C56.652 6.70902 56.6215 7.1351 56.6489 7.55945C56.6489 12.7292 56.64 17.901 56.6489 23.0688C56.6489 24.5738 57.1776 25.5055 58.6651 25.8551C58.7274 25.879 58.787 25.9098 58.8426 25.9467C58.4242 26.3538 58.0524 26.806 57.7339 27.2951L61.4556 30.0863C61.0612 30.1612 60.6614 30.204 60.2601 30.2143C58.5941 30.3394 56.9202 30.1233 55.3409 29.5791C54.41 29.2638 53.5667 28.7339 52.8792 28.0323C52.1918 27.3307 51.6797 26.4772 51.3845 25.5409C51.1303 24.768 51.0031 23.9591 51.0077 23.1456C51.0077 17.7286 50.9841 12.3117 51.0196 6.90057C50.9876 5.56613 51.3749 4.25518 52.1271 3.15171C52.8793 2.04824 53.9587 1.20762 55.2137 0.747837C56.9447 0.125944 58.7912 -0.109406 60.6231 0.058389C61.948 0.116503 63.245 0.457757 64.4266 1.05908C65.2461 1.47676 65.9642 2.06826 66.5308 2.79217C67.0973 3.51607 67.4985 4.35489 67.7063 5.24987C67.8446 5.80777 67.9109 6.38103 67.9036 6.95573C67.8967 12.5392 67.9194 18.1236 67.8849 23.707C67.8868 25.0837 67.3972 26.4159 66.5039 27.4645C65.7759 26.911 65.0806 26.3456 64.3477 25.8345C63.6077 25.3095 62.7314 25.0095 61.8245 24.9707Z" fill="#051655"/>
<path d="M67.7801 29.2812C67.4845 29.7633 67.0793 30.169 66.5974 30.4657C66.1156 30.7624 65.5705 30.9417 65.0064 30.9891C63.7642 31.0325 62.5546 30.5865 61.6389 29.7471C60.6525 28.9592 59.6365 28.2255 58.6344 27.4661C58.4124 27.2977 58.3384 27.1706 58.5525 26.8751C58.829 26.4939 59.1843 26.1765 59.5945 25.9445C60.0047 25.7126 60.46 25.5714 60.9297 25.5307C61.5906 25.4671 62.2574 25.5488 62.8833 25.77C63.5092 25.9912 64.079 26.3465 64.5527 26.8111C65.5045 27.6069 66.5255 28.318 67.5188 29.0675C67.5908 29.1217 67.6608 29.1827 67.7801 29.2812Z" fill="#EB3D35"/>
</g>
<defs>
<clipPath id="clip0_48_1170">
<rect width="120" height="31" fill="white"/>
</clipPath>
</defs>
</svg>
